# This file uses centimeters as units for non-parametric coordinates.

mtllib ServineHead.mtl
g default1
v -0.031695 4.678373 1.092135
v 1.189221 4.297735 0.917768
v 1.337622 4.297733 -0.202983
v -0.031695 4.703573 0.014025
v 1.294363 4.124235 -0.825377
v -0.031695 4.297731 -1.064113
v -0.031695 1.769851 7.054992
v -0.031695 1.675052 -2.233289
v 1.642789 2.744085 -1.686912
v 2.157498 3.429182 -0.504781
v 1.986293 3.429184 0.837495
v 2.009727 0.578765 0.837495
v 2.171057 0.704338 -0.064783
v 1.575858 0.979826 -1.624606
v -0.031695 0.872384 -2.096082
v 0.575961 -0.136500 2.188708
v -0.031695 -0.298489 2.290281
v 1.618696 0.574660 2.164528
v -0.031695 4.219110 2.624372
v 0.919134 3.837289 2.394787
v 1.756920 3.152757 2.100395
v -0.031695 2.986429 3.700857
v 0.681224 2.700632 3.614151
v 0.981563 2.158498 3.702574
v 1.034075 0.748147 3.860415
v 0.391044 0.105365 3.916855
v -0.031695 -0.055779 3.909631
v 0.281699 2.058008 5.040346
v -0.031695 2.292658 4.946593
v 0.455368 1.706326 5.100176
v 0.412105 1.065190 5.296943
v 0.258123 0.691111 5.317277
v -0.031695 0.562229 5.290963
v -0.031695 6.218908 -1.825929
v 0.434958 6.434839 -1.667463
v -0.031695 7.147468 -1.956740
v -0.031695 4.999252 -1.946618
v 1.112370 5.201980 -1.299057
v 1.071354 5.751581 -1.111024
v -0.031695 5.754867 -1.561287
v -0.031695 3.633352 -2.268889
v 1.371895 4.340372 -1.258136
v 1.371223 4.705906 -0.881344
v -0.031695 5.186998 -1.403993
v -0.031695 5.685121 -1.831043
v 0.883849 5.685121 -1.394863
v 0.503557 6.615320 -1.512757
v -0.031695 6.565427 -1.805729
v -1.401012 4.297733 -0.202983
v -1.357754 4.124235 -0.825377
v -1.639248 0.979826 -1.624606
v -0.498349 6.434839 -1.667463
v -1.706179 2.744085 -1.686912
v -2.220889 3.429182 -0.504781
v -2.234448 0.704338 -0.064783
v -1.252611 4.297735 0.917768
v -2.049684 3.429184 0.837495
v -2.073118 0.578765 0.837495
v -0.639352 -0.136500 2.188708
v -1.682086 0.574660 2.164528
v -0.982525 3.837289 2.394787
v -1.820311 3.152757 2.100395
v -0.744614 2.700632 3.614151
v -1.044953 2.158498 3.702574
v -1.097465 0.748147 3.860415
v -0.345090 2.058008 5.040346
v -0.518759 1.706326 5.100176
v -0.454434 0.105365 3.916855
v -0.475496 1.065190 5.296943
v -0.321514 0.691111 5.317277
v -1.435285 4.340372 -1.258136
v -1.434614 4.705906 -0.881344
v -1.175761 5.201980 -1.299057
v -0.947239 5.685121 -1.394863
v -1.134745 5.751581 -1.111024
v -0.566947 6.615320 -1.512757
v 0.520326 -0.080856 -0.586501
v -0.031695 -0.080856 -0.979585
v 0.823624 -0.080856 0.311288
v 0.823624 -0.221648 0.747309
v -0.031695 -0.356957 1.121819
v -0.583716 -0.080856 -0.586501
v -0.887015 -0.080856 0.311288
v -0.887015 -0.221648 0.747309
vt 0.066426 0.193955
vt 0.081795 0.184877
vt 0.142781 0.184877
vt 0.125873 0.180997
vt 0.136794 0.086941
vt 0.171496 0.108262
vt 0.108956 0.086941
vt 0.154589 0.110665
vt 0.185510 0.232678
vt 0.196733 0.227849
vt 0.205997 0.248618
vt 0.186888 0.150126
vt 0.203795 0.126215
vt 0.103168 0.165450
vt 0.721675 0.051122
vt 0.733123 0.007154
vt 0.787920 0.064398
vt 0.810470 0.013293
vt 0.902845 0.087429
vt 0.892654 0.021930
vt 0.965977 0.213237
vt 0.921139 0.174762
vt 0.993065 0.172282
vt 0.943725 0.127902
vt 0.879339 0.142669
vt 0.710708 0.070376
vt 0.768040 0.094929
vt 0.844232 0.824618
vt 0.902418 0.804240
vt 0.849290 0.881077
vt 0.921068 0.851400
vt 0.742296 0.146851
vt 0.686452 0.137046
vt 0.898792 0.269262
vt 0.872350 0.229246
vt 0.955680 0.222996
vt 0.845761 0.188114
vt 0.889162 0.273704
vt 0.816522 0.290495
vt 0.799830 0.259684
vt 0.775074 0.244610
vt 0.715677 0.219773
vt 0.724826 0.323377
vt 0.739464 0.333506
vt 0.709215 0.314696
vt 0.676477 0.214921
vt 0.657371 0.213349
vt 0.657105 0.140334
vt 0.680098 0.306664
vt 0.882401 0.854039
vt 0.881516 0.827990
vt 0.969445 0.831962
vt 0.966989 0.787202
vt 0.967303 0.775981
vt 0.882661 0.819016
vt 0.893565 0.923172
vt 0.897643 0.939512
vt 0.805914 0.903107
vt 0.890962 0.898684
vt 0.657439 0.392470
vt 0.228104 0.170017
vt 0.156522 0.185831
vt 0.021971 0.655894
vt 0.037296 0.715496
vt 0.087340 0.673672
vt 0.180404 0.764792
vt 0.129837 0.194007
vt 0.159420 0.205103
vt 0.205280 0.200568
vt 0.166205 0.215909
vt 0.197095 0.215909
vt 0.146103 0.217396
vt 0.174554 0.236715
vt 0.100185 0.822643
vt 0.210185 0.911148
vt 0.223473 0.822980
vt 0.290405 0.906036
vt 0.331753 0.965676
vt 0.081795 0.184877
vt 0.125873 0.180997
vt 0.154589 0.110665
vt 0.108956 0.086941
vt 0.185510 0.232678
vt 0.186888 0.150126
vt 0.103168 0.165450
vt 0.503745 0.013473
vt 0.581286 0.007203
vt 0.526321 0.064641
vt 0.592660 0.051273
vt 0.421948 0.022721
vt 0.411767 0.087924
vt 0.370793 0.128267
vt 0.393501 0.175084
vt 0.321594 0.172946
vt 0.348859 0.213585
vt 0.435247 0.143015
vt 0.546317 0.095100
vt 0.603510 0.070459
vt 0.921068 0.851400
vt 0.849290 0.881077
vt 0.572072 0.147027
vt 0.627754 0.137064
vt 0.442519 0.229479
vt 0.358975 0.223366
vt 0.416084 0.269464
vt 0.468919 0.188408
vt 0.425940 0.273726
vt 0.498290 0.290813
vt 0.514929 0.259978
vt 0.539620 0.244904
vt 0.598886 0.220014
vt 0.590017 0.323267
vt 0.575469 0.333483
vt 0.605451 0.314639
vt 0.638223 0.215113
vt 0.634608 0.306438
vt 0.966989 0.787202
vt 0.881516 0.827990
vt 0.969445 0.831962
vt 0.882401 0.854039
vt 0.893565 0.923172
vt 0.890962 0.898684
vt 0.156522 0.185831
vt 0.037296 0.715496
vt 0.021971 0.655894
vt 0.129837 0.194007
vt 0.159420 0.205103
vt 0.166205 0.215909
vt 0.174554 0.236715
vt 0.146103 0.217396
vt 0.210185 0.911148
vt 0.100185 0.822643
vt 0.891778 0.855399
vt 0.896639 0.851526
vt 0.933067 0.874670
vt 0.931969 0.890843
vt 0.906531 0.931064
vt 0.889794 0.903510
vt 0.849513 0.888025
vt 0.908332 0.883463
vn 0.262164 0.958813 -0.109302
vn 0.249624 0.955467 -0.157388
vn 0.201525 0.925579 -0.320454
vn 0.201525 0.925579 -0.320455
vn 0.271453 -0.765873 -0.582883
vn 0.325235 -0.403034 -0.855445
vn 0.271453 -0.765873 -0.582883
vn 0.327226 -0.351187 -0.877263
vn 0.372037 -0.129484 -0.919142
vn 0.372037 -0.129484 -0.919142
vn 0.372037 -0.129484 -0.919142
vn 0.321823 -0.081706 -0.943268
vn 0.327226 -0.351187 -0.877263
vn 0.321823 -0.081706 -0.943268
vn 0.325235 -0.403034 -0.855445
vn 0.738762 0.666372 -0.100886
vn 0.966332 0.206072 -0.154070
vn 0.651323 0.587091 -0.480731
vn 0.920338 0.020480 -0.390587
vn 0.496619 -0.841651 -0.212118
vn 0.481806 -0.833771 -0.269609
vn 0.942548 -0.305195 -0.135866
vn 0.875139 -0.309156 -0.372229
vn 0.966332 0.206072 -0.154070
vn 0.942548 -0.305195 -0.135866
vn 0.920338 0.020480 -0.390587
vn 0.875139 -0.309156 -0.372229
vn 0.339172 0.921295 0.190205
vn 0.332051 0.929143 0.162589
vn 0.262164 0.958813 -0.109302
vn 0.249624 0.955467 -0.157388
vn 0.739026 0.666816 0.095896
vn 0.958463 0.249670 0.137887
vn 0.738762 0.666372 -0.100886
vn 0.966332 0.206072 -0.154070
vn 0.518866 -0.848224 -0.106275
vn 0.496619 -0.841651 -0.212118
vn 0.965354 -0.245810 0.087571
vn 0.942548 -0.305195 -0.135866
vn 0.966332 0.206072 -0.154070
vn 0.958463 0.249670 0.137887
vn 0.942548 -0.305195 -0.135866
vn 0.965354 -0.245810 0.087571
vn 0.221832 -0.972231 0.074551
vn 0.221832 -0.972231 0.074551
vn 0.221832 -0.972231 0.074551
vn 0.221832 -0.972231 0.074551
vn 0.551750 -0.820171 0.151301
vn 0.551750 -0.820171 0.151301
vn 0.551750 -0.820171 0.151301
vn 0.551750 -0.820171 0.151301
vn 0.365307 0.880568 0.301912
vn 0.365307 0.880568 0.301912
vn 0.339172 0.921295 0.190205
vn 0.332051 0.929143 0.162589
vn 0.692007 0.655485 0.302431
vn 0.692007 0.655485 0.302431
vn 0.692007 0.655485 0.302431
vn 0.692007 0.655485 0.302431
vn 0.972769 -0.017840 0.231089
vn 0.972769 -0.017840 0.231089
vn 0.972769 -0.017840 0.231089
vn 0.972769 -0.017840 0.231089
vn 0.380116 0.623680 0.683034
vn 0.380115 0.623680 0.683034
vn 0.380116 0.623680 0.683034
vn 0.380116 0.623680 0.683034
vn 0.635335 0.489138 0.597573
vn 0.635335 0.489138 0.597573
vn 0.635335 0.489138 0.597573
vn 0.635335 0.489138 0.597573
vn 0.924365 0.001368 0.381508
vn 0.924365 0.001368 0.381508
vn 0.924365 0.001368 0.381508
vn 0.924365 0.001368 0.381508
vn 0.399750 0.794491 0.457147
vn 0.399750 0.794491 0.457147
vn 0.399751 0.794491 0.457147
vn 0.399750 0.794491 0.457147
vn 0.763496 0.477093 0.435266
vn 0.763496 0.477093 0.435266
vn 0.763496 0.477093 0.435266
vn 0.763496 0.477093 0.435266
vn 0.616089 -0.753393 0.229854
vn 0.616089 -0.753393 0.229854
vn 0.616089 -0.753393 0.229854
vn 0.616089 -0.753393 0.229854
vn 0.308435 -0.938869 0.152947
vn 0.308435 -0.938869 0.152947
vn 0.308435 -0.938869 0.152947
vn 0.308435 -0.938869 0.152947
vn 0.923441 0.069401 0.377414
vn 0.923441 0.069401 0.377414
vn 0.923441 0.069401 0.377414
vn 0.923441 0.069401 0.377414
vn 0.743370 -0.554396 0.374227
vn 0.743370 -0.554396 0.374227
vn 0.743370 -0.554396 0.374227
vn 0.743370 -0.554396 0.374227
vn 0.331740 -0.859905 0.387960
vn 0.331740 -0.859905 0.387960
vn 0.331740 -0.859905 0.387960
vn 0.331740 -0.859905 0.387960
vn 0.547768 0.812038 0.201355
vn 0.547768 0.812038 0.201355
vn 0.547768 0.812038 0.201355
vn 0.864476 0.460995 0.200414
vn 0.864476 0.460995 0.200414
vn 0.864476 0.460995 0.200414
vn 0.970363 0.008637 0.241496
vn 0.970363 0.008637 0.241496
vn 0.970363 0.008637 0.241496
vn 0.870869 -0.339136 0.355772
vn 0.870869 -0.339136 0.355772
vn 0.870869 -0.339136 0.355772
vn 0.301019 -0.786892 0.538692
vn 0.301019 -0.786892 0.538692
vn 0.301019 -0.786892 0.538692
vn 0.386589 0.130447 -0.912980
vn 0.412439 0.138739 -0.900359
vn 0.386589 0.130447 -0.912980
vn 0.435785 0.146222 -0.888094
vn -0.199828 0.264347 0.943498
vn -0.244266 0.230586 0.941894
vn -0.199828 0.264347 0.943498
vn -0.281787 0.201045 0.938177
vn 0.978069 0.052642 0.201518
vn 0.990211 0.088013 0.108330
vn 0.978069 0.052642 0.201518
vn 0.979702 0.166480 -0.111664
vn 0.486813 0.151487 -0.860270
vn 0.486908 0.151632 -0.860191
vn 0.442404 0.064340 -0.894505
vn 0.434349 0.040402 -0.899838
vn 0.909702 0.232996 -0.343737
vn 0.778693 0.248622 -0.576042
vn 0.824294 0.246306 -0.509777
vn 0.758073 0.239035 -0.606784
vn -0.350953 0.173097 0.920255
vn -0.415052 0.205637 0.886253
vn -0.366808 0.181608 0.912398
vn -0.424560 0.207626 0.881272
vn 0.412439 0.138739 -0.900359
vn 0.486908 0.151632 -0.860191
vn 0.435785 0.146222 -0.888094
vn 0.486813 0.151487 -0.860270
vn 0.990211 0.088013 0.108330
vn 0.909702 0.232996 -0.343737
vn 0.979702 0.166480 -0.111664
vn 0.824294 0.246306 -0.509777
vn -0.244266 0.230586 0.941894
vn -0.350953 0.173097 0.920255
vn -0.281787 0.201045 0.938177
vn -0.366808 0.181608 0.912398
vn 0.442404 0.064340 -0.894505
vn 0.434349 0.040402 -0.899838
vn 0.401311 -0.050243 -0.914563
vn 0.401311 -0.050243 -0.914563
vn 0.778693 0.248622 -0.576042
vn 0.754655 0.237461 -0.611644
vn 0.758073 0.239035 -0.606784
vn 0.754655 0.237461 -0.611644
vn -0.424560 0.207626 0.881272
vn -0.415052 0.205637 0.886253
vn -0.484082 0.219749 0.846980
vn -0.262164 0.958813 -0.109302
vn -0.201525 0.925579 -0.320454
vn -0.249624 0.955467 -0.157388
vn -0.201525 0.925579 -0.320454
vn -0.327226 -0.351187 -0.877263
vn -0.325235 -0.403034 -0.855445
vn -0.271453 -0.765873 -0.582882
vn -0.271453 -0.765873 -0.582882
vn -0.372038 -0.129484 -0.919142
vn -0.372038 -0.129484 -0.919142
vn -0.372038 -0.129484 -0.919142
vn -0.321823 -0.081706 -0.943268
vn -0.321823 -0.081706 -0.943268
vn -0.327226 -0.351187 -0.877263
vn -0.325235 -0.403034 -0.855445
vn -0.738762 0.666372 -0.100886
vn -0.651323 0.587091 -0.480731
vn -0.966332 0.206072 -0.154070
vn -0.920339 0.020480 -0.390586
vn -0.875139 -0.309156 -0.372229
vn -0.481806 -0.833771 -0.269609
vn -0.942548 -0.305195 -0.135866
vn -0.496619 -0.841651 -0.212118
vn -0.875139 -0.309156 -0.372229
vn -0.942548 -0.305195 -0.135866
vn -0.920339 0.020480 -0.390586
vn -0.966332 0.206072 -0.154070
vn -0.249624 0.955467 -0.157388
vn -0.332051 0.929143 0.162588
vn -0.262164 0.958813 -0.109302
vn -0.339172 0.921295 0.190204
vn -0.966332 0.206072 -0.154070
vn -0.958463 0.249670 0.137887
vn -0.738762 0.666372 -0.100886
vn -0.739026 0.666817 0.095896
vn -0.942548 -0.305195 -0.135866
vn -0.496619 -0.841651 -0.212118
vn -0.965354 -0.245810 0.087571
vn -0.518866 -0.848224 -0.106275
vn -0.966332 0.206072 -0.154070
vn -0.942548 -0.305195 -0.135866
vn -0.958463 0.249670 0.137887
vn -0.965354 -0.245810 0.087571
vn -0.221832 -0.972231 0.074551
vn -0.221832 -0.972231 0.074551
vn -0.221832 -0.972231 0.074551
vn -0.221832 -0.972231 0.074551
vn -0.551750 -0.820171 0.151301
vn -0.551750 -0.820171 0.151301
vn -0.551750 -0.820171 0.151301
vn -0.551750 -0.820171 0.151301
vn -0.332051 0.929143 0.162588
vn -0.365307 0.880568 0.301911
vn -0.339172 0.921295 0.190204
vn -0.365307 0.880568 0.301911
vn -0.692007 0.655485 0.302432
vn -0.692007 0.655485 0.302432
vn -0.692007 0.655485 0.302432
vn -0.692007 0.655485 0.302432
vn -0.972769 -0.017840 0.231089
vn -0.972769 -0.017840 0.231089
vn -0.972769 -0.017840 0.231089
vn -0.972769 -0.017840 0.231089
vn -0.380116 0.623680 0.683034
vn -0.380115 0.623680 0.683034
vn -0.380115 0.623680 0.683034
vn -0.380115 0.623680 0.683034
vn -0.635335 0.489138 0.597573
vn -0.635335 0.489138 0.597573
vn -0.635335 0.489138 0.597573
vn -0.635335 0.489138 0.597573
vn -0.924365 0.001368 0.381508
vn -0.924365 0.001368 0.381508
vn -0.924365 0.001368 0.381508
vn -0.924365 0.001368 0.381508
vn -0.399750 0.794491 0.457147
vn -0.399750 0.794491 0.457147
vn -0.399750 0.794491 0.457147
vn -0.399750 0.794491 0.457147
vn -0.763496 0.477092 0.435266
vn -0.763496 0.477093 0.435266
vn -0.763496 0.477093 0.435266
vn -0.763496 0.477093 0.435266
vn -0.616089 -0.753393 0.229854
vn -0.616089 -0.753393 0.229854
vn -0.616089 -0.753393 0.229854
vn -0.616089 -0.753393 0.229854
vn -0.308435 -0.938869 0.152946
vn -0.308435 -0.938869 0.152946
vn -0.308435 -0.938869 0.152946
vn -0.308435 -0.938869 0.152946
vn -0.923441 0.069401 0.377414
vn -0.923441 0.069401 0.377414
vn -0.923441 0.069401 0.377414
vn -0.923441 0.069401 0.377414
vn -0.743370 -0.554396 0.374227
vn -0.743370 -0.554396 0.374227
vn -0.743370 -0.554396 0.374227
vn -0.743370 -0.554396 0.374227
vn -0.331740 -0.859905 0.387960
vn -0.331740 -0.859905 0.387960
vn -0.331740 -0.859905 0.387960
vn -0.331740 -0.859905 0.387960
vn -0.547768 0.812038 0.201356
vn -0.547768 0.812038 0.201356
vn -0.547768 0.812038 0.201356
vn -0.864476 0.460995 0.200413
vn -0.864476 0.460995 0.200413
vn -0.864476 0.460995 0.200413
vn -0.970363 0.008637 0.241496
vn -0.970363 0.008637 0.241496
vn -0.970363 0.008637 0.241496
vn -0.870869 -0.339136 0.355772
vn -0.870869 -0.339136 0.355772
vn -0.870869 -0.339136 0.355772
vn -0.301019 -0.786892 0.538692
vn -0.301019 -0.786892 0.538692
vn -0.301019 -0.786892 0.538692
vn -0.435785 0.146222 -0.888094
vn -0.412439 0.138739 -0.900359
vn -0.386589 0.130447 -0.912980
vn -0.386589 0.130447 -0.912980
vn 0.281787 0.201045 0.938177
vn 0.244266 0.230586 0.941894
vn 0.199828 0.264347 0.943498
vn 0.199828 0.264347 0.943498
vn -0.979702 0.166480 -0.111664
vn -0.990211 0.088013 0.108330
vn -0.978069 0.052642 0.201518
vn -0.978069 0.052642 0.201518
vn -0.486813 0.151486 -0.860271
vn -0.442404 0.064340 -0.894505
vn -0.486907 0.151632 -0.860191
vn -0.434348 0.040402 -0.899839
vn -0.758071 0.239034 -0.606787
vn -0.778692 0.248622 -0.576043
vn -0.824294 0.246306 -0.509778
vn -0.909702 0.232997 -0.343737
vn 0.424559 0.207626 0.881273
vn 0.415051 0.205636 0.886254
vn 0.366808 0.181608 0.912398
vn 0.350953 0.173097 0.920255
vn -0.486813 0.151486 -0.860271
vn -0.486907 0.151632 -0.860191
vn -0.435785 0.146222 -0.888094
vn -0.412439 0.138739 -0.900359
vn -0.824294 0.246306 -0.509778
vn -0.909702 0.232997 -0.343737
vn -0.979702 0.166480 -0.111664
vn -0.990211 0.088013 0.108330
vn 0.366808 0.181608 0.912398
vn 0.350953 0.173097 0.920255
vn 0.281787 0.201045 0.938177
vn 0.244266 0.230586 0.941894
vn -0.442404 0.064340 -0.894505
vn -0.401312 -0.050243 -0.914562
vn -0.434348 0.040402 -0.899839
vn -0.401312 -0.050243 -0.914562
vn -0.754653 0.237460 -0.611647
vn -0.754653 0.237460 -0.611647
vn -0.758071 0.239034 -0.606787
vn -0.778692 0.248622 -0.576043
vn 0.424559 0.207626 0.881273
vn 0.484082 0.219749 0.846980
vn 0.415051 0.205636 0.886254
vn 0.000000 -1.000000 0.000002
vn 0.000000 -1.000000 0.000002
vn 0.000000 -1.000000 -0.000000
vn 0.000000 -0.990430 -0.138015
vn -0.000554 -0.993261 -0.115899
vn 0.002464 -0.948749 -0.316022
vn 0.004479 -0.945125 -0.326679
vn -0.015996 -0.951497 -0.307241
s 1
g Head
usemtl None
f 4/1/1 3/2/2 6/3/3
f 6/3/3 3/2/2 5/4/4
s 2
f 78/5/5 15/6/6 77/7/7
f 77/7/7 15/6/6 14/8/8
s off
f 35/9/9 34/10/10 36/11/11
s 3
f 9/12/12 14/8/13 8/13/14
f 8/13/14 14/8/13 15/6/15
s 4
f 3/2/16 10/14/17 5/4/18
f 5/4/18 10/14/17 9/12/19
s 5
f 79/15/20 77/16/21 13/17/22
f 13/17/22 77/16/21 14/18/23
s 6
f 10/19/24 13/17/25 9/20/26
f 9/20/26 13/17/25 14/18/27
s 7
f 1/21/28 2/22/29 4/23/30
f 4/23/30 2/22/29 3/24/31
s 8
f 2/22/32 11/25/33 3/24/34
f 3/24/34 11/25/33 10/19/35
s 9
f 80/26/36 79/15/37 12/27/38
f 12/27/38 79/15/37 13/17/39
s 10
f 10/19/40 11/25/41 13/17/42
f 13/17/42 11/25/41 12/27/43
s 11
f 17/28/44 81/29/45 16/30/46
f 16/30/46 81/29/45 80/31/47
s 12
f 12/27/48 18/32/49 80/26/50
f 80/26/50 18/32/49 16/33/51
s 13
f 19/34/52 20/35/53 1/36/54
f 1/36/54 20/35/53 2/22/55
s 14
f 20/35/56 21/37/57 2/22/58
f 2/22/58 21/37/57 11/25/59
s 15
f 18/32/60 12/27/61 21/37/62
f 21/37/62 12/27/61 11/25/63
s 16
f 19/38/64 22/39/65 20/35/66
f 20/35/66 22/39/65 23/40/67
s 17
f 24/41/68 21/37/69 23/40/70
f 23/40/70 21/37/69 20/35/71
s 18
f 25/42/72 18/32/73 24/41/74
f 24/41/74 18/32/73 21/37/75
s 19
f 28/43/76 23/40/77 29/44/78
f 29/44/78 23/40/77 22/39/79
s 20
f 23/40/80 28/43/81 24/41/82
f 24/41/82 28/43/81 30/45/83
s 21
f 18/32/84 25/42/85 16/33/86
f 16/33/86 25/42/85 26/46/87
s 22
f 27/47/88 17/48/89 26/46/90
f 26/46/90 17/48/89 16/33/91
s 23
f 31/49/92 25/42/93 30/45/94
f 30/45/94 25/42/93 24/41/95
s 24
f 31/50/96 32/51/97 25/52/98
f 25/52/98 32/51/97 26/53/99
s 25
f 27/54/100 26/53/101 33/55/102
f 33/55/102 26/53/101 32/51/103
s off
f 28/56/104 29/57/105 7/58/106
f 30/59/107 28/56/108 7/58/109
f 30/45/110 7/60/111 31/49/112
f 32/51/113 31/50/114 7/58/115
f 33/55/116 32/51/117 7/58/118
s 26
f 8/13/119 41/61/120 9/12/121
f 9/12/121 41/61/120 42/62/122
s 27
f 5/63/123 43/64/124 6/65/125
f 6/65/125 43/64/124 44/66/126
s 28
f 9/12/127 42/62/128 5/4/129
f 5/4/129 42/62/128 43/67/130
s 29
f 38/68/131 37/69/132 46/70/133
f 46/70/133 37/69/132 45/71/134
s 30
f 38/68/135 46/70/136 39/72/137
f 39/72/137 46/70/136 47/73/138
s 31
f 39/74/139 47/75/140 40/76/141
f 40/76/141 47/75/140 48/77/142
s 32
f 41/61/143 37/69/144 42/62/145
f 42/62/145 37/69/144 38/68/146
s 33
f 42/62/147 38/68/148 43/67/149
f 43/67/149 38/68/148 39/72/150
s 34
f 43/64/151 39/74/152 44/66/153
f 44/66/153 39/74/152 40/76/154
s 35
f 46/70/155 45/71/156 35/9/157
f 35/9/157 45/71/156 34/10/158
s 36
f 46/70/159 35/9/160 47/73/161
f 47/73/161 35/9/160 36/11/162
s off
f 48/77/163 47/75/164 36/78/165
s 37
f 4/1/166 6/3/167 49/79/168
f 49/79/168 6/3/167 50/80/169
s 38
f 51/81/170 15/6/171 82/82/172
f 82/82/172 15/6/171 78/5/173
s off
f 52/83/174 36/11/175 34/10/176
s 39
f 53/84/177 8/13/178 51/81/179
f 51/81/179 8/13/178 15/6/180
s 40
f 49/79/181 50/80/182 54/85/183
f 54/85/183 50/80/182 53/84/184
s 41
f 51/86/185 82/87/186 55/88/187
f 55/88/187 82/87/186 83/89/188
s 42
f 51/86/189 55/88/190 53/90/191
f 53/90/191 55/88/190 54/91/192
s 43
f 49/92/193 56/93/194 4/94/195
f 4/94/195 56/93/194 1/95/196
s 44
f 54/91/197 57/96/198 49/92/199
f 49/92/199 57/96/198 56/93/200
s 45
f 55/88/201 83/89/202 58/97/203
f 58/97/203 83/89/202 84/98/204
s 46
f 54/91/205 55/88/206 57/96/207
f 57/96/207 55/88/206 58/97/208
s 47
f 84/99/209 81/29/210 59/100/211
f 59/100/211 81/29/210 17/28/212
s 48
f 58/97/213 84/98/214 60/101/215
f 60/101/215 84/98/214 59/102/216
s 49
f 56/93/217 61/103/218 1/104/219
f 1/104/219 61/103/218 19/105/220
s 50
f 61/103/221 56/93/222 62/106/223
f 62/106/223 56/93/222 57/96/224
s 51
f 57/96/225 58/97/226 62/106/227
f 62/106/227 58/97/226 60/101/228
s 52
f 19/107/229 61/103/230 22/108/231
f 22/108/231 61/103/230 63/109/232
s 53
f 61/103/233 62/106/234 63/109/235
f 63/109/235 62/106/234 64/110/236
s 54
f 62/106/237 60/101/238 64/110/239
f 64/110/239 60/101/238 65/111/240
s 55
f 66/112/241 29/113/242 63/109/243
f 63/109/243 29/113/242 22/108/244
s 56
f 67/114/245 66/112/246 64/110/247
f 64/110/247 66/112/246 63/109/248
s 57
f 60/101/249 59/102/250 65/111/251
f 65/111/251 59/102/250 68/115/252
s 58
f 59/102/253 17/48/254 68/115/255
f 68/115/255 17/48/254 27/47/256
s 59
f 64/110/257 65/111/258 67/114/259
f 67/114/259 65/111/258 69/116/260
s 60
f 68/117/261 70/118/262 65/119/263
f 65/119/263 70/118/262 69/120/264
s 61
f 27/54/265 33/55/266 68/117/267
f 68/117/267 33/55/266 70/118/268
s off
f 66/121/269 7/58/270 29/57/271
f 67/122/272 7/58/273 66/121/274
f 67/114/275 69/116/276 7/60/277
f 70/118/278 7/58/279 69/120/280
f 33/55/281 7/58/282 70/118/283
s 62
f 71/123/284 41/61/285 53/84/286
f 53/84/286 41/61/285 8/13/287
s 63
f 44/66/288 72/124/289 6/65/290
f 6/65/290 72/124/289 50/125/291
s 64
f 72/126/292 71/123/293 50/80/294
f 50/80/294 71/123/293 53/84/295
s 65
f 73/127/296 74/128/297 37/69/298
f 37/69/298 74/128/297 45/71/299
s 66
f 76/129/300 74/128/301 75/130/302
f 75/130/302 74/128/301 73/127/303
s 67
f 48/77/304 76/131/305 40/76/306
f 40/76/306 76/131/305 75/132/307
s 68
f 73/127/308 37/69/309 71/123/310
f 71/123/310 37/69/309 41/61/311
s 69
f 75/130/312 73/127/313 72/126/314
f 72/126/314 73/127/313 71/123/315
s 70
f 40/76/316 75/132/317 44/66/318
f 44/66/318 75/132/317 72/124/319
s 71
f 74/128/320 52/83/321 45/71/322
f 45/71/322 52/83/321 34/10/323
s 72
f 36/11/324 52/83/325 76/129/326
f 76/129/326 52/83/325 74/128/327
s off
f 48/77/328 36/78/329 76/131/330
s 73
f 78/133/331 77/134/332 82/140/333
f 77/134/332 79/135/334 82/140/333
f 82/140/333 79/135/334 83/139/335
f 79/135/334 80/136/336 83/139/335
f 80/136/336 81/137/337 83/139/335
f 81/137/337 84/138/338 83/139/335
