# This file uses centimeters as units for non-parametric coordinates.

mtllib RhyperiorTail.mtl
g default
v -4.791721 -5.216612 -3.693525
v 4.256863 -5.216612 -2.980924
v -4.631733 1.571776 -5.725056
v 4.416852 1.571776 -5.012456
v -4.130370 4.106667 -7.543874
v 4.206377 4.106667 -6.887332
v -2.113780 0.082035 -12.686775
v 3.019688 0.082035 -12.282501
v -1.432808 0.828392 -17.856264
v 3.156315 0.828392 -17.494858
v -1.378006 -0.256664 -18.552137
v 3.211117 -0.256664 -18.190731
v -1.177428 -4.087807 -21.099079
v 3.411695 -4.087807 -20.737673
v -0.665796 -6.439491 -10.316234
v 1.218484 -6.439491 -10.167842
v 2.973978 -1.339396 -11.702064
v -2.159491 -1.339396 -12.106339
v -1.306122 2.165811 -19.801315
v -1.237935 1.092194 -20.667158
v 3.309330 2.165811 -19.437837
v 3.377517 1.092194 -20.303678
v -0.992431 -2.139155 -23.448164
v 3.596692 -2.139155 -23.086757
v -5.495904 -4.374444 3.349929
v -5.180134 3.344739 -0.659716
v 3.849821 -4.374444 4.085929
v 4.165592 3.344739 0.076285
v -4.728909 7.833829 -1.841877
v 3.904979 7.833829 -1.161936
v -4.511545 11.163917 -22.737306
v -6.548813 5.113599 -27.573177
v 6.934821 11.163917 -21.835874
v 9.703955 5.113599 -26.293230
v -3.285234 -1.404522 -30.998258
v 7.109468 -1.404522 -30.179647
v -3.198423 13.331556 -26.871418
v -2.687823 10.040336 -33.355016
v 6.285018 13.331556 -26.124571
v 6.795619 10.040336 -32.608167
v -2.473181 4.105162 -35.389299
v 6.956160 4.105162 -34.646715
v 5.847480 6.612838 -18.899071
v -3.897320 6.612838 -19.666500
v -4.917727 2.418003 -23.107996
v -2.131323 -3.239071 -27.219248
v 5.355754 -3.239071 -26.629621
v 7.394022 2.418003 -22.138412
vt 0.116867 0.157106
vt 0.116850 0.152091
vt 0.122668 0.157086
vt 0.122650 0.152071
vt 0.117105 0.159864
vt 0.122449 0.159846
vt 0.110345 0.088354
vt 0.101084 0.037499
vt 0.158948 0.088609
vt 0.164957 0.034991
vt 0.121968 0.121086
vt 0.144666 0.121695
vt 0.169272 0.199028
vt 0.179737 0.251390
vt 0.129262 0.248233
vt 0.143601 0.270740
vt 0.094974 0.183815
vt 0.101964 0.245763
vt 0.225425 0.114383
vt 0.184332 0.181184
vt 0.215614 0.105433
vt 0.162808 0.158296
vt 0.285430 0.097535
vt 0.234603 0.048240
vt 0.171559 0.090557
vt 0.149718 0.130324
vt 0.188582 0.034258
vt 0.059678 0.103681
vt 0.098528 0.090574
vt 0.101266 0.157027
vt 0.115811 0.129802
vt 0.037230 0.057705
vt 0.078027 0.039210
vt 0.130702 0.129752
vt 0.134055 0.130362
vt 0.131900 0.137424
vt 0.133873 0.140822
vt 0.122062 0.166934
vt 0.144504 0.169622
vt 0.165780 0.195823
vt 0.314303 0.069422
vt 0.262366 0.019348
vt 0.066014 0.017912
vt 0.007355 0.032733
vt 0.198707 0.011130
vt 0.097920 0.004566
vt 0.164562 0.001025
vt 0.142017 0.315831
vt 0.203804 0.307846
vt 0.142665 0.354947
vt 0.210754 0.350078
vt 0.228261 0.350845
vt 0.243487 0.305610
vt 0.121439 0.356621
vt 0.111037 0.318184
vt 0.293525 0.341223
vt 0.325110 0.294636
vt 0.056853 0.333905
vt 0.060043 0.296704
vt 0.002735 0.263030
vt 0.002121 0.311958
vt 0.192813 0.275766
vt 0.142710 0.290039
vt 0.235458 0.254645
vt 0.113339 0.285888
vt 0.316144 0.236031
vt 0.249338 0.166315
vt 0.075646 0.273635
vt 0.022535 0.215306
vn -0.069625 0.462084 0.884099
vn -0.069625 0.462084 0.884099
vn -0.069625 0.462084 0.884099
vn -0.069625 0.462084 0.884099
vn -0.069625 0.462084 0.884099
vn -0.069625 0.462084 0.884099
vn -0.075787 0.261043 0.962348
vn -0.075787 0.261043 0.962348
vn -0.075787 0.261043 0.962348
vn -0.075787 0.261043 0.962348
vn -0.075787 0.261043 0.962348
vn -0.075787 0.261043 0.962348
vn 0.047563 0.795599 -0.603954
vn 0.047563 0.795599 -0.603954
vn 0.047563 0.795599 -0.603954
vn 0.047563 0.795599 -0.603954
vn 0.047563 0.795599 -0.603954
vn 0.047563 0.795599 -0.603954
vn -0.011140 0.989883 0.141449
vn -0.011140 0.989883 0.141449
vn -0.011140 0.989883 0.141449
vn -0.011140 0.989883 0.141449
vn -0.011140 0.989883 0.141449
vn -0.011140 0.989883 0.141449
vn 0.035450 0.892255 -0.450137
vn 0.035450 0.892256 -0.450137
vn 0.035450 0.892256 -0.450137
vn 0.035450 0.892256 -0.450137
vn 0.035450 0.892256 -0.450137
vn 0.035450 0.892256 -0.450137
vn 0.074228 0.325741 -0.942541
vn 0.074228 0.325741 -0.942541
vn 0.074228 0.325741 -0.942541
vn 0.074228 0.325741 -0.942541
vn 0.074228 0.325741 -0.942541
vn 0.074228 0.325741 -0.942541
vn 0.016839 -0.976728 -0.213818
vn 0.016839 -0.976728 -0.213819
vn 0.016839 -0.976728 -0.213819
vn 0.016839 -0.976728 -0.213819
vn 0.016839 -0.976728 -0.213819
vn 0.016839 -0.976728 -0.213819
vn -0.013650 -0.984769 0.173333
vn -0.013650 -0.984769 0.173333
vn -0.013650 -0.984769 0.173333
vn -0.013650 -0.984769 0.173333
vn -0.013650 -0.984769 0.173333
vn -0.013650 -0.984769 0.173333
vn 0.948778 -0.286532 0.133118
vn 0.987264 -0.132457 0.088117
vn 0.987264 -0.132457 0.088117
vn 0.987264 -0.132457 0.088117
vn 0.987264 -0.132457 0.088117
vn 0.998852 0.025228 0.040714
vn 0.870017 -0.390143 -0.301429
vn 0.940421 -0.237072 -0.243733
vn 0.940421 -0.237072 -0.243733
vn 0.940421 -0.237072 -0.243733
vn 0.940421 -0.237072 -0.243733
vn 0.980998 -0.076481 -0.178307
vn 0.999270 -0.018481 0.033436
vn 0.999468 0.006177 0.032029
vn 0.999468 0.006177 0.032029
vn 0.999468 0.006177 0.032029
vn 0.999468 0.006177 0.032029
vn 0.999056 0.030832 0.030602
vn 0.980750 -0.056757 -0.186837
vn 0.983069 -0.074437 -0.167433
vn 0.983069 -0.074437 -0.167433
vn 0.983069 -0.074437 -0.167433
vn 0.983069 -0.074437 -0.167433
vn 0.984706 -0.092066 -0.147912
vn -0.957919 -0.286532 -0.017039
vn -0.988887 -0.132457 -0.067511
vn -0.988887 -0.132457 -0.067511
vn -0.988887 -0.132457 -0.067511
vn -0.988887 -0.132457 -0.067511
vn -0.992912 0.025228 -0.116142
vn -0.812108 -0.390143 -0.433900
vn -0.890675 -0.237072 -0.387937
vn -0.890675 -0.237072 -0.387937
vn -0.890675 -0.237072 -0.387937
vn -0.890675 -0.237072 -0.387937
vn -0.940994 -0.076481 -0.329669
vn -0.992185 -0.018481 -0.123396
vn -0.992161 0.006177 -0.124817
vn -0.992161 0.006177 -0.124817
vn -0.992161 0.006177 -0.124817
vn -0.992161 0.006177 -0.124817
vn -0.991530 0.030832 -0.126162
vn -0.939413 -0.056757 -0.338055
vn -0.944742 -0.074437 -0.319253
vn -0.944742 -0.074437 -0.319253
vn -0.944742 -0.074437 -0.319253
vn -0.944742 -0.074437 -0.319253
vn -0.949414 -0.092066 -0.300229
vn -0.044421 0.824539 0.564059
vn -0.044421 0.824539 0.564059
vn -0.044421 0.824539 0.564059
vn -0.044421 0.824539 0.564059
vn -0.044421 0.824539 0.564059
vn -0.044421 0.824538 0.564060
vn -0.997589 -0.006047 -0.069133
vn -0.997546 -0.006351 -0.069719
vn -0.997546 -0.006351 -0.069719
vn -0.997546 -0.006351 -0.069719
vn -0.997546 -0.006351 -0.069719
vn -0.997503 -0.006654 -0.070305
vn 0.996913 -0.000000 0.078510
vn 0.996913 -0.000000 0.078510
vn 0.996913 -0.000000 0.078510
vn 0.996913 -0.000000 0.078510
vn 0.996913 -0.000000 0.078510
vn 0.996913 0.000000 0.078510
vn -0.997545 -0.005833 -0.069785
vn -0.997085 -0.005300 -0.076113
vn -0.997085 -0.005300 -0.076113
vn -0.997085 -0.005300 -0.076113
vn -0.997085 -0.005300 -0.076113
vn -0.996585 -0.004767 -0.082438
vn 0.996913 0.000000 0.078510
vn 0.996913 0.000000 0.078510
vn 0.996913 0.000000 0.078510
vn 0.996913 0.000000 0.078510
vn 0.996913 0.000000 0.078510
vn 0.996913 0.000000 0.078510
vn 0.050033 -0.770626 -0.635321
vn 0.050033 -0.770626 -0.635321
vn 0.050033 -0.770626 -0.635321
vn 0.050033 -0.770626 -0.635321
vn 0.050033 -0.770626 -0.635321
vn 0.050033 -0.770625 -0.635321
vn -0.009277 -0.992994 0.117802
vn -0.009277 -0.992994 0.117802
vn -0.009277 -0.992994 0.117802
vn -0.009277 -0.992994 0.117802
vn -0.009277 -0.992994 0.117802
vn -0.009277 -0.992994 0.117802
vn -0.994453 -0.007950 -0.104882
vn -0.994787 -0.009140 -0.101568
vn -0.994787 -0.009140 -0.101568
vn -0.994787 -0.009140 -0.101568
vn -0.994787 -0.009140 -0.101568
vn -0.995108 -0.010329 -0.098253
vn 0.998611 -0.007950 0.052077
vn 0.998422 -0.009140 0.055403
vn 0.998422 -0.009140 0.055403
vn 0.998422 -0.009140 0.055403
vn 0.998422 -0.009140 0.055403
vn 0.998221 -0.010329 0.058727
vn -0.985645 0.094617 -0.139829
vn -0.986810 0.078022 -0.141843
vn -0.986810 0.078022 -0.141843
vn -0.986810 0.078022 -0.141843
vn -0.986810 0.078022 -0.141843
vn -0.987697 0.061406 -0.143817
vn 0.995382 0.094617 0.016182
vn 0.996848 0.078022 0.014375
vn 0.996848 0.078022 0.014375
vn 0.996848 0.078022 0.014375
vn 0.996848 0.078022 0.014375
vn 0.998034 0.061406 0.012564
vn 0.042801 0.838326 -0.543487
vn 0.042801 0.838326 -0.543487
vn 0.042801 0.838326 -0.543487
vn 0.042801 0.838326 -0.543487
vn 0.042801 0.838326 -0.543487
vn 0.042801 0.838326 -0.543487
vn -0.078284 -0.075750 0.994049
vn -0.078284 -0.075750 0.994049
vn -0.078284 -0.075750 0.994049
vn -0.078284 -0.075750 0.994049
vn -0.078284 -0.075750 0.994049
vn -0.078284 -0.075750 0.994049
vn -0.593310 -0.527828 0.607767
vn -0.616627 -0.460741 0.638349
vn -0.616627 -0.460741 0.638349
vn -0.616627 -0.460741 0.638349
vn -0.616627 -0.460741 0.638349
vn -0.636256 -0.390898 0.665115
vn 0.490859 -0.527828 0.693148
vn 0.509101 -0.460740 0.727004
vn 0.509101 -0.460740 0.727004
vn 0.509101 -0.460740 0.727004
vn 0.509101 -0.460740 0.727004
vn 0.524299 -0.390897 0.756511
vn -0.589829 -0.552041 0.589366
vn -0.641370 -0.589130 0.491497
vn -0.641370 -0.589130 0.491497
vn -0.641370 -0.589130 0.491497
vn -0.641370 -0.589130 0.491497
vn -0.684182 -0.618201 0.386939
vn 0.490385 -0.549406 0.676517
vn 0.555725 -0.585825 0.589897
vn 0.555725 -0.585825 0.589897
vn 0.555725 -0.585825 0.589897
vn 0.555725 -0.585825 0.589897
vn 0.613786 -0.614571 0.495550
vn -0.022539 -0.957905 0.286200
vn -0.022539 -0.957905 0.286200
vn -0.022539 -0.957905 0.286200
vn -0.022539 -0.957905 0.286200
vn -0.022539 -0.957905 0.286200
vn -0.022539 -0.957905 0.286200
vn -0.035842 0.889710 0.455116
vn -0.035842 0.889710 0.455117
vn -0.035842 0.889710 0.455117
vn -0.035842 0.889710 0.455117
vn -0.035842 0.889710 0.455117
vn -0.035842 0.889710 0.455118
vn -0.919372 0.382624 -0.091399
vn -0.905698 0.384491 -0.178544
vn -0.905698 0.384491 -0.178544
vn -0.905698 0.384491 -0.178544
vn -0.905698 0.384491 -0.178544
vn -0.884973 0.383365 -0.264299
vn 0.922346 0.382624 0.053641
vn 0.922481 0.384491 -0.034570
vn 0.922481 0.384491 -0.034570
vn 0.922481 0.384491 -0.034570
vn 0.922481 0.384491 -0.034570
vn 0.915435 0.383365 -0.122512
vn -0.877295 -0.213340 -0.429930
vn -0.888127 -0.042262 -0.457651
vn -0.888127 -0.042262 -0.457651
vn -0.888127 -0.042262 -0.457651
vn -0.888127 -0.042262 -0.457651
vn -0.872179 0.130090 -0.471573
vn 0.937018 -0.203870 -0.283611
vn 0.950590 -0.034072 -0.308574
vn 0.950590 -0.034072 -0.308574
vn 0.950590 -0.034072 -0.308574
vn 0.950590 -0.034072 -0.308574
vn 0.935988 0.136736 -0.324391
vn 0.061124 -0.627577 -0.776151
vn 0.061124 -0.627577 -0.776151
vn 0.061124 -0.627577 -0.776151
vn 0.061124 -0.627577 -0.776151
vn 0.061124 -0.627577 -0.776151
vn 0.061124 -0.627577 -0.776152
vn -0.065463 0.552041 0.831243
vn -0.065463 0.552040 0.831244
vn -0.065463 0.552040 0.831244
vn -0.065463 0.552040 0.831244
vn -0.065463 0.552040 0.831244
vn -0.065463 0.552040 0.831244
vn -0.945446 -0.035683 0.323820
vn -0.949079 0.020629 0.314361
vn -0.949079 0.020629 0.314361
vn -0.949079 0.020629 0.314361
vn -0.949079 0.020629 0.314361
vn -0.949606 0.076874 0.303872
vn -0.883427 -0.466568 0.043253
vn -0.883865 -0.465782 0.042782
vn -0.883865 -0.465782 0.042782
vn -0.883865 -0.465782 0.042782
vn -0.883865 -0.465782 0.042782
vn -0.884301 -0.464997 0.042311
vn 0.035052 -0.894799 -0.445090
vn 0.035052 -0.894799 -0.445090
vn 0.035052 -0.894799 -0.445090
vn 0.035052 -0.894799 -0.445090
vn 0.035052 -0.894799 -0.445090
vn 0.035052 -0.894799 -0.445090
vn 0.866346 -0.462267 0.189089
vn 0.867909 -0.459823 0.187872
vn 0.867909 -0.459823 0.187872
vn 0.867909 -0.459823 0.187872
vn 0.867909 -0.459823 0.187872
vn 0.869465 -0.457375 0.186653
vn 0.883102 -0.035683 0.467823
vn 0.888171 0.020629 0.459049
vn 0.888171 0.020629 0.459049
vn 0.888171 0.020629 0.459049
vn 0.888171 0.020629 0.459049
vn 0.890334 0.076874 0.448772
s off
g tail
usemtl None
f 26/1/1 25/2/2 28/3/3
f 28/3/4 25/2/5 27/4/6
f 29/5/7 26/1/8 30/6/9
f 30/6/10 26/1/11 28/3/12
f 7/7/13 5/8/14 8/9/15
f 8/9/16 5/8/17 6/10/18
f 9/11/19 7/7/20 10/12/21
f 10/12/22 7/7/23 8/9/24
f 38/13/25 37/14/26 40/15/27
f 40/15/28 37/14/29 39/16/30
f 38/13/31 40/15/32 41/17/33
f 41/17/34 40/15/35 42/18/36
f 15/19/37 13/20/38 16/21/39
f 16/21/40 13/20/41 14/22/42
f 1/23/43 15/19/44 2/24/45
f 2/24/46 15/19/47 16/21/48
f 16/21/49 14/22/50 17/25/51
f 17/25/52 14/22/53 12/26/54
f 16/21/55 17/25/56 2/24/57
f 2/24/58 17/25/59 4/27/60
f 17/25/61 12/26/62 8/9/63
f 8/9/64 12/26/65 10/12/66
f 4/27/67 17/25/68 6/10/69
f 6/10/70 17/25/71 8/9/72
f 15/28/73 18/29/74 13/30/75
f 13/30/76 18/29/77 11/31/78
f 15/28/79 1/32/80 18/29/81
f 18/29/82 1/32/83 3/33/84
f 18/29/85 7/7/86 11/31/87
f 11/31/88 7/7/89 9/11/90
f 3/33/91 5/8/92 18/29/93
f 18/29/94 5/8/95 7/7/96
f 19/34/97 9/11/98 21/35/99
f 21/35/100 9/11/101 10/12/102
f 9/11/103 19/34/104 11/31/105
f 11/31/106 19/34/107 20/36/108
f 10/12/109 12/26/110 21/35/111
f 21/35/112 12/26/113 22/37/114
f 11/31/115 20/36/116 13/30/117
f 13/30/118 20/36/119 23/38/120
f 12/26/121 14/22/122 22/37/123
f 22/37/124 14/22/125 24/39/126
f 23/40/127 24/39/128 13/20/129
f 13/20/130 24/39/131 14/22/132
f 25/41/133 1/23/134 27/42/135
f 27/42/136 1/23/137 2/24/138
f 3/33/139 1/32/140 26/43/141
f 26/43/142 1/32/143 25/44/144
f 4/27/145 28/45/146 2/24/147
f 2/24/148 28/45/149 27/42/150
f 3/33/151 26/43/152 5/8/153
f 5/8/154 26/43/155 29/46/156
f 4/27/157 6/10/158 28/45/159
f 28/45/160 6/10/161 30/47/162
f 29/46/163 30/47/164 5/8/165
f 5/8/166 30/47/167 6/10/168
f 43/48/169 44/49/170 21/50/171
f 21/50/172 44/49/173 19/51/174
f 20/52/175 19/51/176 45/53/177
f 45/53/178 19/51/179 44/49/180
f 22/54/181 48/55/182 21/50/183
f 21/50/184 48/55/185 43/48/186
f 20/52/187 45/53/188 23/56/189
f 23/56/190 45/53/191 46/57/192
f 22/54/193 24/58/194 48/55/195
f 48/55/196 24/58/197 47/59/198
f 47/59/199 24/58/200 46/60/201
f 46/60/202 24/58/203 23/61/204
f 37/14/205 31/62/206 39/16/207
f 39/16/208 31/62/209 33/63/210
f 31/62/211 37/14/212 32/64/213
f 32/64/214 37/14/215 38/13/216
f 33/63/217 34/65/218 39/16/219
f 39/16/220 34/65/221 40/15/222
f 35/66/223 32/64/224 41/67/225
f 41/67/226 32/64/227 38/13/228
f 36/68/229 42/18/230 34/65/231
f 34/65/232 42/18/233 40/15/234
f 41/17/235 42/18/236 35/69/237
f 35/69/238 42/18/239 36/68/240
f 31/62/241 44/49/242 33/63/243
f 33/63/244 44/49/245 43/48/246
f 45/53/247 44/49/248 32/64/249
f 32/64/250 44/49/251 31/62/252
f 46/57/253 45/53/254 35/66/255
f 35/66/256 45/53/257 32/64/258
f 36/68/259 47/59/260 35/69/261
f 35/69/262 47/59/263 46/60/264
f 47/59/265 36/68/266 48/55/267
f 48/55/268 36/68/269 34/65/270
f 48/55/271 34/65/272 43/48/273
f 43/48/274 34/65/275 33/63/276
