# This file uses centimeters as units for non-parametric coordinates.

mtllib ServineLArm.mtl
g default1
v 0.937793 -2.718303 0.091855
v 1.401100 -3.156851 1.141236
v 0.824010 -2.304973 1.802822
v 0.107048 -0.093872 -0.063797
v 0.305891 -0.863344 1.022148
v 0.705412 -1.385188 0.530182
v 0.527797 -1.315802 -0.147026
v 0.457732 -1.454513 0.440799
v 0.788043 -1.653378 0.948905
v 0.701790 -1.622527 0.232418
v 0.135277 -0.104330 -0.163791
v -0.067415 0.220562 -0.160525
v -0.126142 0.215791 0.105123
v 0.079058 -0.391164 0.291844
vt 0.098317 0.174646
vt 0.098252 0.186575
vt 0.096350 0.175030
vt 0.093027 0.186400
vt 0.074991 0.146778
vt 0.084667 0.127618
vt 0.097987 0.130166
vt 0.089355 0.164115
vt 0.086425 0.125073
vt 0.076431 0.117771
vt 0.059635 0.093847
vt 0.093288 0.078671
vt 0.090524 0.118904
vt 0.072648 0.062570
vn 0.930289 0.337088 -0.144687
vn 0.835159 0.519210 0.181469
vn 0.930184 0.337914 -0.143430
vn 0.831532 0.520801 0.193184
vn 0.847850 0.493735 0.193328
vn 0.848461 0.492683 0.193330
vn 0.847850 0.493735 0.193328
vn 0.843996 0.489467 0.219299
vn 0.848461 0.492683 0.193330
vn 0.840965 0.487739 0.234283
vn 0.930289 0.337088 -0.144687
vn 0.930184 0.337914 -0.143430
vn 0.935762 0.302936 -0.180497
vn 0.936147 0.300204 -0.183050
vn -0.912903 -0.327258 -0.243947
vn -0.925923 -0.345347 -0.152976
vn -0.912903 -0.327258 -0.243947
vn -0.926890 -0.347213 -0.142542
vn -0.945600 -0.312070 0.091936
vn -0.945600 -0.312070 0.091936
vn -0.912516 -0.408968 0.007694
vn -0.895519 -0.444335 -0.024753
vn 0.840965 0.487739 0.234283
vn 0.843996 0.489467 0.219299
vn 0.832530 0.482922 0.271442
vn 0.832530 0.482922 0.271442
vn 0.941167 0.241714 -0.236177
vn 0.935762 0.302936 -0.180497
vn 0.941167 0.241714 -0.236177
vn 0.936147 0.300204 -0.183050
vn -0.926890 -0.347213 -0.142542
vn -0.925923 -0.345347 -0.152976
vn -0.917943 -0.380076 0.113682
vn -0.917943 -0.380076 0.113682
vn -0.853798 -0.512675 -0.090514
vn -0.912516 -0.408968 0.007694
vn -0.853798 -0.512675 -0.090514
vn -0.895519 -0.444335 -0.024753
vn 0.921186 0.383816 0.064046
vn 0.921186 0.383816 0.064046
vn 0.921186 0.383816 0.064046
vn -0.850218 -0.290526 0.439003
vn -0.850218 -0.290526 0.439003
vn -0.850218 -0.290526 0.439003
vn 0.929321 0.283174 -0.237014
vn 0.929320 0.283174 -0.237015
vn 0.929320 0.283174 -0.237015
vn -0.725264 -0.564233 -0.394503
vn -0.725264 -0.564233 -0.394503
vn -0.725264 -0.564233 -0.394503
s off
g LArm
usemtl None
f 11/1/1 12/2/2 4/3/3
f 12/2/4 13/4/5 4/3/6
s 1
f 13/4/7 5/5/8 4/3/9
f 4/3/9 5/5/8 6/6/10
s 2
f 11/1/11 4/3/12 7/7/13
f 7/7/13 4/3/12 6/6/14
s 3
f 11/1/15 7/7/16 14/8/17
f 14/8/17 7/7/16 8/9/18
s 4
f 13/4/19 14/8/20 5/5/21
f 5/5/21 14/8/20 8/9/22
s 5
f 6/6/23 5/5/24 9/10/25
s off
f 9/10/25 5/5/24 3/11/26
s 6
f 1/12/27 7/7/28 10/13/29
s off
f 10/13/29 7/7/28 6/6/30
f 8/9/31 7/7/32 10/13/33
s 6
f 10/13/33 7/7/32 1/12/34
s off
f 3/11/35 5/5/36 9/10/37
s 5
f 9/10/37 5/5/36 8/9/38
s off
f 6/6/39 9/10/40 2/14/41
f 9/10/42 8/9/43 2/14/44
f 10/13/45 6/6/46 2/14/47
f 8/9/48 10/13/49 2/14/50
