# This file uses centimeters as units for non-parametric coordinates.

mtllib ServineRLeg.mtl
g default1
v -0.532995 -2.660729 0.911031
v -0.253424 -2.536775 -0.125564
v -0.472245 -2.549593 -0.125564
v 0.275375 -0.256575 -0.277837
v 0.231920 -0.402383 0.253705
v -0.504189 -0.198218 -0.277837
v -0.445199 -0.321807 0.151982
v -0.486342 -1.162679 0.134563
v -0.405433 -1.225789 -0.466086
v 0.053922 -1.243522 -0.466086
v 0.044494 -1.202632 0.230075
v -0.510229 -1.558293 0.183478
v -0.312298 -2.403012 -0.470109
v -0.087883 -1.587904 0.278990
v -0.301799 -2.090947 -0.283402
v -0.531961 -2.081680 0.443191
v -0.240153 -2.084656 -0.352214
v -0.275547 -2.097609 0.538702
v 0.351256 0.118663 -0.204924
v 0.326723 0.090140 0.252602
v -0.550423 0.286051 -0.204924
v -0.486368 0.312104 0.142985
vt 0.762893 0.740918
vt 0.866608 0.748941
vt 0.866608 0.749866
vt 0.818752 0.903938
vt 0.964018 0.914463
vt 0.785526 0.939491
vt 0.977488 0.941550
vt 0.964018 0.918676
vt 0.977488 0.953633
vt 0.796494 0.955513
vt 0.828930 0.909755
vt 0.942101 0.844500
vt 0.848933 0.849056
vt 0.942101 0.843220
vt 0.839377 0.846172
vt 0.901081 0.759522
vt 0.839181 0.820498
vt 0.829625 0.818361
vt 0.919051 0.782048
vt 0.809702 0.782717
vt 0.889285 0.782502
vt 0.800146 0.781568
vn 0.058165 -0.992974 -0.103050
vn 0.058165 -0.992974 -0.103050
vn 0.058165 -0.992974 -0.103050
vn 0.975400 -0.219030 0.024903
vn 0.975966 -0.216388 0.025806
vn 0.980148 -0.195514 0.032914
vn 0.980148 -0.195514 0.032914
vn 0.015762 0.176312 -0.984208
vn 0.015879 0.176138 -0.984237
vn 0.022354 0.166482 -0.985791
vn 0.022354 0.166482 -0.985791
vn -0.985707 -0.085350 0.145246
vn -0.998180 -0.048402 0.035966
vn -0.985707 -0.085350 0.145246
vn -0.998947 -0.042243 0.017888
vn -0.137328 0.015419 0.990406
vn -0.149487 0.006513 0.988742
vn -0.137328 0.015419 0.990406
vn -0.149687 0.006365 0.988713
vn -0.992344 -0.040183 -0.116781
vn -0.993893 -0.038503 -0.103416
vn -0.998180 -0.048402 0.035966
vn -0.998947 -0.042243 0.017888
vn 0.015762 0.176312 -0.984208
vn 0.008605 0.140414 -0.990056
vn 0.015879 0.176138 -0.984237
vn 0.008321 0.135825 -0.990698
vn 0.975400 -0.219030 0.024903
vn 0.963262 -0.266727 0.031367
vn 0.975966 -0.216388 0.025806
vn 0.962074 -0.270875 0.032244
vn -0.167598 0.041052 0.985000
vn -0.166684 0.034580 0.985404
vn -0.149487 0.006513 0.988742
vn -0.149687 0.006365 0.988713
vn -0.981263 -0.071271 -0.179009
vn -0.981001 -0.077518 -0.177840
vn -0.992344 -0.040183 -0.116781
vn -0.993893 -0.038503 -0.103416
vn 0.008605 0.140414 -0.990056
vn 0.000132 0.003428 -0.999994
vn 0.008321 0.135825 -0.990698
vn 0.963262 -0.266727 0.031367
vn 0.947545 -0.316401 0.045276
vn 0.962074 -0.270875 0.032244
vn 0.947447 -0.316672 0.045421
vn -0.198606 0.316849 0.927449
vn -0.197717 0.306399 0.931143
vn -0.167598 0.041052 0.985000
vn -0.166684 0.034580 0.985404
vn -0.986049 -0.063419 -0.153904
vn -0.985051 0.067124 -0.158648
vn -0.987493 0.014006 -0.157041
vn -0.985051 0.067124 -0.158648
vn 0.036945 -0.548453 -0.835365
vn -0.201226 -0.346239 -0.916311
vn -0.110263 -0.429983 -0.896078
vn -0.201226 -0.346239 -0.916312
vn 0.973903 -0.173056 0.146849
vn 0.973903 -0.173056 0.146849
vn 0.968714 -0.206409 0.137797
vn 0.958743 -0.255832 0.123940
vn -0.218701 0.510178 0.831798
vn -0.243084 0.609869 0.754301
vn -0.219849 0.514737 0.828681
vn -0.987493 0.014006 -0.157041
vn -0.981001 -0.077518 -0.177840
vn -0.986049 -0.063419 -0.153904
vn -0.981263 -0.071271 -0.179009
vn 0.705660 -0.381117 0.597322
vn 0.036945 -0.548453 -0.835365
vn -0.110263 -0.429983 -0.896078
vn 0.968714 -0.206409 0.137797
vn 0.958743 -0.255832 0.123940
vn 0.947545 -0.316401 0.045276
vn 0.947447 -0.316672 0.045421
vn -0.198606 0.316849 0.927449
vn -0.218701 0.510178 0.831798
vn -0.197717 0.306399 0.931143
vn -0.219849 0.514737 0.828681
s off
g RLeg
usemtl None
f 1/1/1 3/2/2 2/3/3
s 1
f 5/4/4 4/5/5 20/6/6
f 20/6/6 4/5/5 19/7/7
s 2
f 4/5/8 6/8/9 19/7/10
f 19/7/10 6/8/9 21/9/11
s 3
f 21/9/12 6/8/13 22/10/14
f 22/10/14 6/8/13 7/11/15
s 4
f 22/10/16 7/11/17 20/6/18
f 20/6/18 7/11/17 5/4/19
s 5
f 9/12/20 8/13/21 6/8/22
f 6/8/22 8/13/21 7/11/23
s 6
f 4/5/24 10/14/25 6/8/26
f 6/8/26 10/14/25 9/12/27
s 7
f 5/4/28 11/15/29 4/5/30
f 4/5/30 11/15/29 10/14/31
s 8
f 8/13/32 11/15/33 7/11/34
f 7/11/34 11/15/33 5/4/35
s 9
f 13/16/36 12/17/37 9/12/38
f 9/12/38 12/17/37 8/13/39
s off
f 10/14/40 13/16/41 9/12/42
s 10
f 11/15/43 14/18/44 10/14/45
f 10/14/45 14/18/44 13/16/46
s 11
f 12/17/47 14/18/48 8/13/49
f 8/13/49 14/18/48 11/15/50
s 12
f 15/19/51 3/2/52 16/20/53
f 16/20/53 3/2/52 1/1/54
s 13
f 17/21/55 2/3/56 15/19/57
f 15/19/57 2/3/56 3/2/58
s 14
f 1/1/59 2/3/60 18/22/61
f 18/22/61 2/3/60 17/21/62
s off
f 16/20/63 1/1/64 18/22/65
s 15
f 16/20/66 12/17/67 15/19/68
f 13/16/69 15/19/68 12/17/67
s off
f 13/16/70 17/21/71 15/19/72
s 16
f 18/22/73 17/21/74 14/18/75
f 14/18/75 17/21/74 13/16/76
s 17
f 12/17/77 16/20/78 14/18/79
f 14/18/79 16/20/78 18/22/80
